<svg xmlns="http://www.w3.org/2000/svg" viewBox="0 0 25 35" fill="currentColor">
    <path
        d="M24.4104 12.4457L20.947 0.684091C20.8887 0.486671 20.7681 0.313396 20.6032 0.190112C20.4384 0.0668281 20.2381 0.000141676 20.0322 0H4.7945C4.58865 0.000141676 4.38835 0.0668281 4.2235 0.190112C4.05864 0.313396 3.93805 0.486671 3.87973 0.684091L0.416319 12.4457C-0.11017 14.192 -0.137848 16.0508 0.336411 17.8121C0.810671 19.5733 1.76797 21.1669 3.10018 22.4127C5.3834 24.5537 8.33617 25.8401 11.4588 26.0543V33.0909H6.04973C5.79657 33.0909 5.55378 33.1915 5.37476 33.3705C5.19575 33.5495 5.09518 33.7923 5.09518 34.0455C5.09518 34.2986 5.19575 34.5414 5.37476 34.7204C5.55378 34.8994 5.79657 35 6.04973 35H18.777C19.0302 35 19.273 34.8994 19.452 34.7204C19.631 34.5414 19.7315 34.2986 19.7315 34.0455C19.7315 33.7923 19.631 33.5495 19.452 33.3705C19.273 33.1915 19.0302 33.0909 18.777 33.0909H13.3679V26.0543C16.4905 25.8397 19.4431 24.5534 21.7265 22.4127C23.0588 21.1669 24.0161 19.5733 24.4903 17.8121C24.9646 16.0508 24.9369 14.192 24.4104 12.4457ZM5.50882 1.90909H19.3179L22.5809 12.9866C22.6222 13.1298 22.6604 13.273 22.6938 13.4161C19.1079 14.8591 15.0304 13.3 12.8445 12.1943C8.61109 10.0498 5.33064 9.91773 2.99996 10.4236L5.50882 1.90909ZM20.4236 21.0175C18.2519 23.0507 15.3883 24.182 12.4134 24.182C9.43843 24.182 6.57482 23.0507 4.40314 21.0175C3.33051 20.0132 2.56009 18.7289 2.17888 17.3098C1.79768 15.8907 1.82088 14.3932 2.24586 12.9866L2.36359 12.5873C4.32677 11.8777 7.49587 11.6248 11.9822 13.8966C13.7322 14.7795 16.5402 15.9075 19.5422 15.9075C20.6878 15.9151 21.8267 15.734 22.9134 15.3714C22.9024 16.4321 22.6761 17.4795 22.2481 18.45C21.8201 19.4206 21.1994 20.2941 20.4236 21.0175Z"
    />
</svg>