<svg xmlns="http://www.w3.org/2000/svg" width="26" height="25" viewBox="0 0 26 25" fill="none">
    <path
        d="M12.75 0C15.2717 0 17.7368 0.733112 19.8335 2.10663C21.9302 3.48015 23.5644 5.43238 24.5295 7.71646C25.4945 10.0005 25.747 12.5139 25.255 14.9386C24.7631 17.3634 23.5487 19.5907 21.7656 21.3388C19.9825 23.087 17.7107 24.2775 15.2374 24.7598C12.7641 25.2421 10.2005 24.9946 7.87079 24.0485C5.54103 23.1024 3.54975 21.5002 2.14876 19.4446C0.747776 17.389 1.90735e-06 14.9723 1.90735e-06 12.5C0.0039711 9.18599 1.34855 6.00882 3.73878 3.66546C6.129 1.3221 9.36971 0.00389197 12.75 0ZM12.75 23.5294C14.975 23.5294 17.1501 22.8825 19.0002 21.6706C20.8502 20.4587 22.2922 18.7361 23.1436 16.7208C23.9951 14.7054 24.2179 12.4878 23.7838 10.3483C23.3498 8.20877 22.2783 6.24352 20.705 4.70103C19.1316 3.15854 17.1271 2.10809 14.9448 1.68251C12.7625 1.25694 10.5005 1.47536 8.44481 2.31015C6.38914 3.14494 4.63214 4.55861 3.39597 6.37239C2.1598 8.18616 1.5 10.3186 1.5 12.5C1.50331 15.4242 2.68964 18.2277 4.7987 20.2954C6.90777 22.3631 9.76733 23.5262 12.75 23.5294ZM7.22 11.9804C7.07955 12.1183 7.00066 12.3051 7.00066 12.5C7.00066 12.6949 7.07955 12.8817 7.22 13.0196L11.22 16.9412C11.3622 17.0711 11.5502 17.1418 11.7445 17.1384C11.9388 17.135 12.1242 17.0579 12.2616 16.9232C12.399 16.7884 12.4777 16.6067 12.4812 16.4162C12.4846 16.2257 12.4125 16.0413 12.28 15.902L9.56125 13.2353H17.75C17.9489 13.2353 18.1397 13.1578 18.2803 13.0199C18.421 12.882 18.5 12.695 18.5 12.5C18.5 12.305 18.421 12.118 18.2803 11.9801C18.1397 11.8422 17.9489 11.7647 17.75 11.7647H9.56125L12.28 9.09804C12.4125 8.95865 12.4846 8.77429 12.4812 8.5838C12.4777 8.39331 12.399 8.21156 12.2616 8.07684C12.1242 7.94212 11.9388 7.86495 11.7445 7.86159C11.5502 7.85823 11.3622 7.92894 11.22 8.05882L7.22 11.9804Z"
        fill="white" />
</svg>