<svg viewBox="0 0 84 84" fill="currentColor" xmlns="http://www.w3.org/2000/svg">
    <path
        d="M60.65 83.1C73.0488 83.1 83.1 73.0488 83.1 60.65C83.1 48.2512 73.0488 38.2 60.65 38.2C48.2512 38.2 38.2 48.2512 38.2 60.65C38.2 73.0488 48.2512 83.1 60.65 83.1Z" />
    <path
        d="M18.45 71.1C24.2214 71.1 28.9 66.4214 28.9 60.65C28.9 54.8786 24.2214 50.2 18.45 50.2C12.6786 50.2 8 54.8786 8 60.65C8 66.4214 12.6786 71.1 18.45 71.1Z" />
    <path
        d="M60.65 32.9C68.6305 32.9 75.1 26.4305 75.1 18.45C75.1 10.4695 68.6305 4 60.65 4C52.6695 4 46.2 10.4695 46.2 18.45C46.2 26.4305 52.6695 32.9 60.65 32.9Z" />
    <path
        d="M18.45 36.9C28.6397 36.9 36.9 28.6397 36.9 18.45C36.9 8.26035 28.6397 0 18.45 0C8.26035 0 0 8.26035 0 18.45C0 28.6397 8.26035 36.9 18.45 36.9Z" />
</svg>