<svg xmlns="http://www.w3.org/2000/svg" viewBox="0 0 26 35" fill="currentColor">
    <path
        d="M25.3214 16.1109C25.2883 15.9684 25.2209 15.8364 25.125 15.7265C25.0291 15.6166 24.9078 15.5321 24.7718 15.4806L16.0441 12.1868L18.2544 1.06424C18.2921 0.8744 18.2673 0.677367 18.1836 0.503021C18.1 0.328675 17.9622 0.18653 17.7911 0.0981467C17.6199 0.00976306 17.4248 -0.0200371 17.2353 0.0132664C17.0458 0.04657 16.8723 0.14116 16.7411 0.282689L0.237571 18.0788C0.138457 18.1858 0.0670642 18.3157 0.02971 18.457C-0.00764424 18.5983 -0.00980839 18.7468 0.0234093 18.8891C0.0566271 19.0315 0.124203 19.1635 0.220156 19.2733C0.316109 19.3831 0.437482 19.4675 0.573535 19.5188L9.30124 22.8126L7.09095 33.9352C7.05299 34.1251 7.07764 34.3223 7.16114 34.4968C7.24465 34.6713 7.38245 34.8136 7.55363 34.9021C7.67872 34.9662 7.81703 34.9997 7.95738 35C8.07875 35 8.19882 34.9748 8.31011 34.9261C8.4214 34.8774 8.52153 34.8061 8.60426 34.7167L25.1078 16.9206C25.2067 16.8137 25.2779 16.6839 25.3152 16.5426C25.3525 16.4014 25.3546 16.2531 25.3214 16.1109ZM9.43091 31.2124L11.177 22.4211C11.2185 22.214 11.1853 21.9988 11.0835 21.8141C10.9818 21.6293 10.818 21.487 10.6215 21.4126L2.42871 18.3206L15.9056 3.78705L14.1639 12.5798C14.1225 12.7869 14.1556 13.0021 14.2574 13.1869C14.3592 13.3716 14.5229 13.5139 14.7194 13.5883L22.9122 16.6804L9.43091 31.2124Z"
    />
</svg>