<svg xmlns="http://www.w3.org/2000/svg" viewBox="0 0 35 35" fill="currentColor">
    <path
        d="M11.3235 19.2157C10.9842 19.2157 10.6525 19.1151 10.3704 18.9265C10.0882 18.738 9.8683 18.4701 9.73845 18.1566C9.60859 17.8431 9.57461 17.4981 9.64081 17.1653C9.70702 16.8325 9.87042 16.5268 10.1104 16.2868C10.3503 16.0469 10.656 15.8835 10.9888 15.8173C11.3216 15.7511 11.6666 15.7851 11.9801 15.9149C12.2936 16.0448 12.5616 16.2647 12.7501 16.5468C12.9386 16.829 13.0392 17.1607 13.0392 17.5C13.0392 17.955 12.8585 18.3914 12.5367 18.7132C12.215 19.0349 11.7786 19.2157 11.3235 19.2157ZM23.6765 15.7843C23.3371 15.7843 23.0054 15.8849 22.7233 16.0735C22.4411 16.262 22.2212 16.5299 22.0914 16.8434C21.9615 17.1569 21.9276 17.5019 21.9938 17.8347C22.06 18.1675 22.2234 18.4732 22.4633 18.7132C22.7032 18.9531 23.0089 19.1165 23.3418 19.1827C23.6746 19.2489 24.0195 19.2149 24.333 19.0851C24.6465 18.9552 24.9145 18.7353 25.103 18.4532C25.2915 18.171 25.3922 17.8393 25.3922 17.5C25.3922 17.045 25.2114 16.6086 24.8896 16.2868C24.5679 15.9651 24.1315 15.7843 23.6765 15.7843ZM21.7549 23.4912C20.4775 24.2846 19.0037 24.7051 17.5 24.7051C15.9963 24.7051 14.5225 24.2846 13.2451 23.4912C13.0139 23.3456 12.7344 23.2977 12.468 23.3582C12.2016 23.4187 11.9701 23.5826 11.8245 23.8137C11.6789 24.0449 11.6311 24.3244 11.6916 24.5908C11.7521 24.8572 11.9159 25.0887 12.1471 25.2343C13.7532 26.235 15.6076 26.7655 17.5 26.7655C19.3924 26.7655 21.2468 26.235 22.8529 25.2343C22.9674 25.1622 23.0665 25.0683 23.1447 24.9579C23.2228 24.8475 23.2785 24.7227 23.3084 24.5908C23.3384 24.4589 23.3421 24.3224 23.3192 24.189C23.2964 24.0557 23.2476 23.9282 23.1755 23.8137C23.1034 23.6993 23.0095 23.6001 22.899 23.522C22.7886 23.4438 22.6639 23.3882 22.532 23.3582C22.4001 23.3283 22.2636 23.3246 22.1302 23.3474C21.9969 23.3702 21.8694 23.4191 21.7549 23.4912ZM35 17.5C35 20.9612 33.9736 24.3446 32.0507 27.2225C30.1278 30.1003 27.3947 32.3434 24.197 33.6679C20.9993 34.9924 17.4806 35.339 14.0859 34.6637C10.6913 33.9885 7.57306 32.3218 5.12564 29.8744C2.67822 27.4269 1.01151 24.3087 0.336265 20.9141C-0.338976 17.5194 0.00758218 14.0007 1.33212 10.803C2.65665 7.60533 4.89967 4.87221 7.77753 2.94928C10.6554 1.02636 14.0388 0 17.5 0C22.1396 0.00544876 26.5876 1.85094 29.8684 5.13165C33.1491 8.41235 34.9946 12.8604 35 17.5ZM32.9412 17.5C32.9363 13.4933 31.3762 9.64492 28.5894 6.76602C25.8027 3.88713 22.0071 2.20257 18.0027 2.0674C15.8358 5.01495 15.7843 7.86642 15.7843 7.89216C15.7843 8.34718 15.9651 8.78358 16.2868 9.10533C16.6086 9.42708 17.045 9.60784 17.5 9.60784C17.955 9.60784 18.3914 9.42708 18.7132 9.10533C19.0349 8.78358 19.2157 8.34718 19.2157 7.89216C19.2157 7.61914 19.3241 7.3573 19.5172 7.16425C19.7102 6.9712 19.9721 6.86274 20.2451 6.86274C20.5181 6.86274 20.78 6.9712 20.973 7.16425C21.1661 7.3573 21.2745 7.61914 21.2745 7.89216C21.2745 8.89322 20.8768 9.85328 20.169 10.5611C19.4611 11.269 18.5011 11.6667 17.5 11.6667C16.4989 11.6667 15.5389 11.269 14.831 10.5611C14.1232 9.85328 13.7255 8.89322 13.7255 7.89216C13.7255 7.76348 13.7512 5.17794 15.4652 2.19265C12.524 2.58364 9.7577 3.81376 7.49732 5.73582C5.23694 7.65788 3.5782 10.1905 2.71955 13.0306C1.8609 15.8708 1.8387 18.8981 2.65563 21.7505C3.47255 24.603 5.09399 27.1596 7.32595 29.1146C9.55791 31.0696 12.3059 32.3401 15.241 32.7742C18.1762 33.2083 21.1743 32.7875 23.8766 31.5622C26.5788 30.3369 28.8709 28.359 30.4784 25.8652C32.086 23.3713 32.941 20.4671 32.9412 17.5Z"
    />
</svg>