<svg xmlns="http://www.w3.org/2000/svg" viewBox="0 0 35 35" fill="currentColor">
    <path
        d="M35 4.95001C35 5.21257 34.8957 5.46439 34.71 5.65005C34.5244 5.83571 34.2726 5.94001 34.01 5.94001H31.04V8.91002C31.04 9.17258 30.9357 9.42439 30.75 9.61005C30.5644 9.79572 30.3125 9.90002 30.05 9.90002C29.7874 9.90002 29.5356 9.79572 29.3499 9.61005C29.1643 9.42439 29.06 9.17258 29.06 8.91002V5.94001H26.0899C25.8274 5.94001 25.5756 5.83571 25.3899 5.65005C25.2042 5.46439 25.0999 5.21257 25.0999 4.95001C25.0999 4.68744 25.2042 4.43563 25.3899 4.24997C25.5756 4.06431 25.8274 3.96001 26.0899 3.96001H29.06V0.990002C29.06 0.727437 29.1643 0.475626 29.3499 0.289965C29.5356 0.104303 29.7874 0 30.05 0C30.3125 0 30.5644 0.104303 30.75 0.289965C30.9357 0.475626 31.04 0.727437 31.04 0.990002V3.96001H34.01C34.2726 3.96001 34.5244 4.06431 34.71 4.24997C34.8957 4.43563 35 4.68744 35 4.95001ZM11.2399 14.9622V29.3701C11.2421 30.6512 10.8066 31.8946 10.0055 32.8944C9.20438 33.8941 8.08571 34.5901 6.83487 34.8671C5.58403 35.1441 4.27611 34.9853 3.12783 34.4172C1.97954 33.8491 1.05983 32.9057 0.521078 31.7434C-0.0176703 30.581 -0.143111 29.2695 0.165542 28.0261C0.474195 26.7827 1.19841 25.6821 2.21819 24.9066C3.23797 24.1312 4.4921 23.7274 5.77276 23.7623C7.05342 23.7971 8.28374 24.2684 9.25985 25.0982V6.27001C9.25984 6.04936 9.33354 5.83502 9.46926 5.66104C9.60498 5.48706 9.79493 5.3634 10.009 5.30971L19.249 2.99971C19.5037 2.93582 19.7733 2.97572 19.9986 3.11063C20.2239 3.24554 20.3863 3.46442 20.4502 3.71911C20.5141 3.9738 20.4742 4.24343 20.3393 4.4687C20.2044 4.69397 19.9855 4.85642 19.7308 4.92031L11.2399 7.04221V12.9228L23.209 9.92972C23.3351 9.89808 23.4662 9.8916 23.5949 9.91063C23.7235 9.92966 23.8471 9.97384 23.9586 10.0406C24.0702 10.1074 24.1675 10.1956 24.245 10.3C24.3224 10.4044 24.3786 10.523 24.4102 10.6491C24.4419 10.7752 24.4484 10.9063 24.4293 11.035C24.4103 11.1636 24.3661 11.2872 24.2993 11.3987C24.2325 11.5103 24.1444 11.6075 24.04 11.685C23.9356 11.7625 23.8169 11.8187 23.6908 11.8503L11.2399 14.9622ZM9.25985 29.3701C9.25985 28.6521 9.04695 27.9503 8.64808 27.3533C8.24921 26.7564 7.68228 26.2911 7.01898 26.0164C6.35568 25.7416 5.6258 25.6697 4.92165 25.8098C4.21749 25.9499 3.57068 26.2956 3.06302 26.8033C2.55535 27.3109 2.20962 27.9577 2.06956 28.6619C1.92949 29.366 2.00138 30.0959 2.27613 30.7592C2.55087 31.4225 3.01614 31.9894 3.6131 32.3883C4.21005 32.7872 4.91188 33.0001 5.62983 33.0001C6.59257 33.0001 7.51588 32.6176 8.19664 31.9369C8.8774 31.2561 9.25985 30.3328 9.25985 29.3701ZM32.36 15.51V24.09C32.3623 25.3712 31.9268 26.6146 31.1256 27.6144C30.3245 28.6141 29.2058 29.3101 27.955 29.5871C26.7042 29.864 25.3962 29.7053 24.248 29.1372C23.0997 28.5691 22.18 27.6257 21.6412 26.4634C21.1025 25.301 20.977 23.9895 21.2857 22.7461C21.5943 21.5027 22.3185 20.4021 23.3383 19.6266C24.3581 18.8512 25.6122 18.4474 26.8929 18.4822C28.1735 18.5171 29.4039 18.9884 30.38 19.8182V15.51C30.38 15.2475 30.4843 14.9957 30.6699 14.81C30.8556 14.6243 31.1074 14.52 31.37 14.52C31.6325 14.52 31.8844 14.6243 32.07 14.81C32.2557 14.9957 32.36 15.2475 32.36 15.51ZM30.38 24.09C30.38 23.3721 30.1671 22.6703 29.7682 22.0733C29.3693 21.4764 28.8024 21.0111 28.1391 20.7364C27.4758 20.4616 26.7459 20.3897 26.0418 20.5298C25.3376 20.6699 24.6908 21.0156 24.1831 21.5232C23.6755 22.0309 23.3297 22.6777 23.1897 23.3819C23.0496 24.086 23.1215 24.8159 23.3962 25.4792C23.671 26.1425 24.1363 26.7094 24.7332 27.1083C25.3302 27.5072 26.032 27.7201 26.75 27.7201C27.7127 27.7201 28.636 27.3376 29.3168 26.6568C29.9975 25.9761 30.38 25.0528 30.38 24.09Z"
    />
</svg>