<svg xmlns="http://www.w3.org/2000/svg" viewBox="0 0 37 35" fill="currentColor">
    <path
        d="M36.2622 33.3558C33.4424 28.4832 29.0157 25.0641 23.872 23.6141C26.3728 22.3429 28.3725 20.2665 29.5488 17.7197C30.7251 15.1729 31.0094 12.3041 30.3558 9.57601C29.7022 6.84788 28.1488 4.41939 25.9462 2.6821C23.7435 0.944816 21.0199 0 18.2146 0C15.4093 0 12.6857 0.944816 10.4831 2.6821C8.2804 4.41939 6.72704 6.84788 6.07344 9.57601C5.41985 12.3041 5.70412 15.1729 6.88041 17.7197C8.05671 20.2665 10.0565 22.3429 12.5572 23.6141C7.41353 25.0623 2.9868 28.4814 0.167029 33.3558C0.0896015 33.4776 0.037612 33.6138 0.014188 33.7562C-0.00923597 33.8986 -0.00361009 34.0443 0.0307266 34.1845C0.0650634 34.3247 0.127401 34.4564 0.213991 34.5719C0.300581 34.6874 0.409632 34.7841 0.534585 34.8564C0.659538 34.9286 0.79781 34.9748 0.941082 34.9922C1.08436 35.0096 1.22967 34.9978 1.36828 34.9576C1.50689 34.9174 1.63593 34.8496 1.74765 34.7582C1.85936 34.6668 1.95144 34.5538 2.01834 34.4259C5.44451 28.5064 11.4978 24.9732 18.2146 24.9732C24.9314 24.9732 30.9847 28.5064 34.4109 34.4259C34.4778 34.5538 34.5699 34.6668 34.6816 34.7582C34.7933 34.8496 34.9223 34.9174 35.061 34.9576C35.1996 34.9978 35.3449 35.0096 35.4882 34.9922C35.6314 34.9748 35.7697 34.9286 35.8946 34.8564C36.0196 34.7841 36.1287 34.6874 36.2152 34.5719C36.3018 34.4564 36.3642 34.3247 36.3985 34.1845C36.4328 34.0443 36.4385 33.8986 36.415 33.7562C36.3916 33.6138 36.3396 33.4776 36.2622 33.3558ZM7.87012 12.4884C7.87012 10.4425 8.47681 8.44248 9.61348 6.74133C10.7501 5.04019 12.3657 3.7143 14.2559 2.93135C16.1462 2.1484 18.2261 1.94355 20.2327 2.34269C22.2394 2.74184 24.0826 3.72706 25.5293 5.17376C26.976 6.62046 27.9612 8.46368 28.3603 10.4703C28.7595 12.477 28.5546 14.5569 27.7717 16.4471C26.9887 18.3373 25.6629 19.9529 23.9617 21.0896C22.2606 22.2262 20.2606 22.8329 18.2146 22.8329C15.4721 22.8296 12.8429 21.7387 10.9036 19.7994C8.96434 17.8602 7.87342 15.2309 7.87012 12.4884Z"
       />
</svg>