<svg xmlns="http://www.w3.org/2000/svg" viewBox="0 0 48 35" fill="currentColor">
    <path
        d="M25.8285 32.866C25.8285 33.288 25.7023 33.7006 25.4658 34.0516C25.2293 34.4025 24.8932 34.676 24.5 34.8376C24.1068 34.9991 23.6741 35.0413 23.2566 34.959C22.8392 34.8767 22.4557 34.6734 22.1548 34.375C21.8538 34.0765 21.6488 33.6963 21.5658 33.2823C21.4828 32.8683 21.5254 32.4392 21.6883 32.0493C21.8511 31.6594 22.127 31.3261 22.4809 31.0916C22.8348 30.8571 23.2508 30.7319 23.6765 30.7319C24.2472 30.7319 24.7946 30.9567 25.1982 31.357C25.6018 31.7572 25.8285 32.3 25.8285 32.866ZM46.8773 8.22844C40.3358 2.90784 32.1369 0 23.6765 0C15.216 0 7.01712 2.90784 0.47561 8.22844C0.343791 8.33494 0.234483 8.46622 0.153962 8.61473C0.0734402 8.76324 0.0232909 8.92606 0.00639248 9.09383C-0.010506 9.26161 0.00617933 9.43105 0.0554905 9.59242C0.104802 9.75379 0.185768 9.90391 0.293741 10.0342C0.401713 10.1644 0.534567 10.2722 0.684674 10.3515C0.834781 10.4307 0.999185 10.4797 1.16845 10.4957C1.33771 10.5117 1.5085 10.4945 1.67102 10.4449C1.83353 10.3953 1.98456 10.3143 2.11544 10.2067C8.19487 5.26275 15.8142 2.56082 23.6765 2.56082C31.5387 2.56082 39.1581 5.26275 45.2375 10.2067C45.3684 10.3143 45.5194 10.3953 45.6819 10.4449C45.8444 10.4945 46.0152 10.5117 46.1845 10.4957C46.3538 10.4797 46.5182 10.4307 46.6683 10.3515C46.8184 10.2722 46.9512 10.1644 47.0592 10.0342C47.1672 9.90391 47.2481 9.75379 47.2974 9.59242C47.3468 9.43105 47.3634 9.26161 47.3465 9.09383C47.3296 8.92606 47.2795 8.76324 47.199 8.61473C47.1185 8.46622 47.0091 8.33494 46.8773 8.22844ZM39.9737 15.8662C35.3353 12.2245 29.5926 10.243 23.6765 10.243C17.7603 10.243 12.0176 12.2245 7.37927 15.8662C7.11073 16.0773 6.93776 16.3855 6.89841 16.7231C6.85906 17.0607 6.95656 17.3999 7.16945 17.6662C7.38234 17.9325 7.69318 18.1041 8.0336 18.1431C8.37402 18.1821 8.71613 18.0854 8.98467 17.8743C13.1664 14.592 18.3433 12.8061 23.6765 12.8061C29.0096 12.8061 34.1865 14.592 38.3683 17.8743C38.598 18.0502 38.8808 18.1441 39.171 18.1411C39.439 18.1411 39.7003 18.0584 39.9188 17.9045C40.1373 17.7506 40.3021 17.5331 40.3903 17.2821C40.4785 17.0312 40.4858 16.7592 40.4111 16.504C40.3365 16.2487 40.1836 16.0228 39.9737 15.8576V15.8662ZM33.0442 23.5082C30.3221 21.5446 27.0426 20.4869 23.6765 20.4869C20.3104 20.4869 17.0309 21.5446 14.3088 23.5082C14.0401 23.711 13.8622 24.0101 13.8133 24.3414C13.7643 24.6727 13.8482 25.0098 14.0469 25.2805C14.2456 25.5512 14.5433 25.734 14.8762 25.7896C15.2092 25.8453 15.5509 25.7694 15.8281 25.5782C18.1087 23.9332 20.8563 23.0471 23.6765 23.0471C26.4966 23.0471 29.2442 23.9332 31.5249 25.5782C31.8017 25.7779 32.1472 25.8604 32.4854 25.8076C32.8235 25.7548 33.1267 25.5709 33.3282 25.2965C33.5296 25.022 33.6129 24.6794 33.5596 24.344C33.5063 24.0087 33.3209 23.708 33.0442 23.5082Z"
    />
</svg>